<?xml version="1.0" encoding="utf-8"?>
<!-- Generator: Adobe Illustrator 18.1.1, SVG Export Plug-In . SVG Version: 6.00 Build 0)  -->
<svg version="1.1" id="Layer_1" xmlns="http://www.w3.org/2000/svg" xmlns:xlink="http://www.w3.org/1999/xlink" x="0px" y="0px"
	 viewBox="0 0 100 100" enable-background="new 0 0 100 100" xml:space="preserve">
<g>
	<g>
		<rect fill="#DBDE34" width="100" height="100"/>
	</g>
	<g>
		<rect x="12.4" y="34.6" fill="none" width="21.5" height="28"/>
	</g>
	<g enable-background="new    ">
		<path fill="#4B4648" d="M20.5,47.8c0,0.2,0.1,0.3,0.3,0.3h8.4c0.3,0.2,0.5,0.7,0.5,1.3c0,0.6-0.1,1.1-0.5,1.3h-8.4
			c-0.3,0-0.3,0.1-0.3,0.3v8.4c0,0.2,0.1,0.3,0.3,0.3H24c0.3,0.1,0.6,0.7,0.6,1.3c0,0.6-0.2,1.2-0.6,1.3h-9.3
			c-0.3-0.1-0.6-0.7-0.6-1.3c0-0.6,0.2-1.2,0.6-1.3h2.4c0.2,0,0.3-0.1,0.3-0.3V39.5c0-0.2-0.1-0.3-0.3-0.3h-2.4
			c-0.3-0.1-0.5-0.7-0.5-1.3c0-0.6,0.2-1.2,0.5-1.3h16c1.4,0,1.7,0.3,1.8,1.5c0.1,1.1,0.1,3.8,0,5.4c-0.6,0.7-2.3,0.6-2.8,0
			c0-1.3,0.1-2.4,0-3.3c0-0.7-0.3-1-1.2-1h-8V47.8z"/>
	</g>
	<g>
		<rect x="34.7" y="34.6" fill="none" width="33.6" height="29"/>
	</g>
	<g enable-background="new    ">
		<path fill="#4B4648" d="M36.7,49.4C36.7,42.7,41.3,36,50,36c8.4,0,13.3,6,13.3,13.3c0,4.9-1.9,8.9-5.4,11.2
			c3.1,5.1,4.8,7.6,7.1,7.6c1.7,0,2.5-1.5,2.8-2.4c1-0.2,2.4,0.4,2.4,1.4C69.9,68.4,68.4,71,65,71c-3.8,0-6-2.9-9.7-9
			c-1.5,0.5-3.2,0.8-5,0.8c-4.6,0-6.3-2.2-6.3-4.7c0-2.9,2.2-5,5.7-5c2.8,0,4.6,1.6,6.8,5c2.4-1.7,3.8-4.8,3.8-8.5
			c0-6.4-4.2-10.6-10.2-10.6c-6.5,0-10.2,4.6-10.2,10.5c0,3,1,5.1,1.9,6.5c0,1.2-1.8,2.1-2.7,1.7C38.1,56.3,36.7,53.4,36.7,49.4z
			 M49.4,55.7c-1.4,0-2.4,0.8-2.4,2.1c0,1.3,1,2.2,3.6,2.2c1.2,0,2.2-0.1,3.2-0.5C51.9,56.7,50.9,55.7,49.4,55.7z"/>
	</g>
	<g>
		<rect x="65.2" y="34.6" fill="none" width="21.5" height="28"/>
	</g>
	<g enable-background="new    ">
		<path fill="#4B4648" d="M73.3,47.8c0,0.2,0.1,0.3,0.3,0.3H82c0.3,0.2,0.5,0.7,0.5,1.3c0,0.6-0.1,1.1-0.5,1.3h-8.4
			c-0.3,0-0.3,0.1-0.3,0.3v8.4c0,0.2,0.1,0.3,0.3,0.3h3.3c0.3,0.1,0.6,0.7,0.6,1.3c0,0.6-0.2,1.2-0.6,1.3h-9.3
			c-0.3-0.1-0.6-0.7-0.6-1.3c0-0.6,0.2-1.2,0.6-1.3h2.4c0.2,0,0.3-0.1,0.3-0.3V39.5c0-0.2-0.1-0.3-0.3-0.3h-2.4
			c-0.3-0.1-0.5-0.7-0.5-1.3c0-0.6,0.2-1.2,0.5-1.3h16c1.4,0,1.7,0.3,1.8,1.5c0.1,1.1,0.1,3.8,0,5.4c-0.6,0.7-2.3,0.6-2.8,0
			c0-1.3,0.1-2.4,0-3.3c0-0.7-0.3-1-1.2-1h-8V47.8z"/>
	</g>
</g>
</svg>
