<?xml version="1.0" encoding="utf-8"?>
<!-- Generator: Adobe Illustrator 18.1.1, SVG Export Plug-In . SVG Version: 6.00 Build 0)  -->
<svg version="1.1" id="Layer_1" xmlns="http://www.w3.org/2000/svg" xmlns:xlink="http://www.w3.org/1999/xlink" x="0px" y="0px"
	 viewBox="0 0 100 100" enable-background="new 0 0 100 100" xml:space="preserve">
<g>
	<g>
		<rect fill="#DBDE34" width="100" height="100"/>
	</g>
	<g>
		<path fill="#4B4648" d="M16.6,26c0,0.1,0,0.1,0.1,0.1h4.5c0.2,0.1,0.2,0.4,0.2,0.7c0,0.3-0.1,0.6-0.2,0.7h-4.5
			c-0.1,0-0.1,0-0.1,0.1v4.5c0,0.1,0,0.2,0.1,0.2h1.8c0.2,0,0.3,0.3,0.3,0.7c0,0.3-0.1,0.7-0.3,0.7h-5c-0.2,0-0.3-0.4-0.3-0.7
			s0.1-0.6,0.3-0.7h1.3c0.1,0,0.1,0,0.1-0.2V21.5c0-0.1-0.1-0.1-0.1-0.1h-1.3c-0.1,0-0.3-0.4-0.3-0.7c0-0.3,0.1-0.6,0.3-0.7h8.5
			c0.8,0,0.9,0.2,1,0.8c0,0.6,0,2,0,2.9c-0.3,0.4-1.2,0.4-1.5,0c0-0.7,0-1.2,0-1.8c0-0.4-0.1-0.5-0.6-0.5h-4.3
			C16.6,21.3,16.6,26,16.6,26z"/>
		<path fill="#4B4648" d="M30.1,24.5c0.9,0,1.3,0.3,1.4,0.5c0.1,0.5-0.2,1.2-0.6,1.4c-0.1-0.1-0.4-0.3-1-0.3c-1.3,0-2.2,1.1-2.5,1.9
			c-0.3,0.8-0.4,1.5-0.4,2.4v1.9c0,0.1,0,0.2,0.1,0.2H29c0.2,0,0.3,0.3,0.3,0.7c0,0.3-0.1,0.6-0.3,0.7h-4.9c-0.2,0-0.3-0.3-0.3-0.7
			c0-0.3,0.1-0.6,0.3-0.7h1.1c0.1,0,0.1,0,0.1-0.2v-5.9c0-0.2-0.1-0.4-0.3-0.4H24c-0.1,0-0.2-0.3-0.2-0.6c0-0.3,0.1-0.5,0.2-0.6
			l2.5-0.1c0.3,0,0.4,0,0.4,0.4v1.5l0.1,0C27.5,25.5,28.5,24.5,30.1,24.5z"/>
		<path fill="#4B4648" d="M37,32.6c1.4,0,2.5-0.5,2.8-0.6c0.2,0,0.5,0.2,0.5,0.5s0.1,0.7,0,0.8C39.9,33.4,38.8,34,37,34
			c-2.8,0-4.8-1.6-4.8-4.6s2.2-4.8,4.5-4.8c2.7,0,3.8,2.1,3.8,4c0,0.2,0,0.2-0.5,0.4c-1.5,0.3-4.6,0.6-6.2,0.7
			C33.8,31.5,35.3,32.6,37,32.6z M38.2,27.9c0.3,0,0.4-0.1,0.4-0.2c0-0.8-0.8-1.9-2.1-1.9s-2.5,0.9-2.8,2.6
			C35,28.4,37.3,28.1,38.2,27.9z"/>
		<path fill="#4B4648" d="M49,24.5c2.8,0,3.3,1.9,3.3,4.1v3.6c0,0.1,0,0.2,0.2,0.2h1.2c0.2,0,0.3,0.3,0.3,0.7c0,0.3-0.1,0.6-0.3,0.7
			h-4.2c-0.2,0-0.3-0.3-0.3-0.7c0-0.3,0.1-0.6,0.3-0.7h1.2c0.2,0,0.2,0,0.2-0.2v-3.5c0-1.9-0.5-2.9-2.1-2.9c-1.5,0-2.6,1-3,2
			c-0.2,0.5-0.3,0.9-0.3,1.5v2.8c0,0.1,0,0.2,0.2,0.2h1.2c0.2,0,0.3,0.3,0.3,0.7c0,0.3-0.1,0.6-0.3,0.7h-4.2c-0.2,0-0.3-0.3-0.3-0.7
			c0-0.3,0.1-0.6,0.3-0.7h1.2c0.1,0,0.2,0,0.2-0.2v-5.8c0-0.2-0.1-0.4-0.3-0.4h-1c-0.1,0-0.2-0.4-0.2-0.6s0.1-0.5,0.2-0.6l2.5-0.1
			c0.3,0,0.4,0,0.4,0.4v1.3h0.1C45.8,25.6,47,24.5,49,24.5z"/>
		<path fill="#4B4648" d="M61,27.7c0-0.3,0-1.2-0.1-1.5c-0.1-0.2-0.4-0.4-1.3-0.4c-2.1,0-3.3,1.6-3.3,3.5c0,2,1.2,3.3,3.4,3.3
			c1.3,0,2.3-0.5,2.6-0.7c0.5,0,0.8,0.8,0.7,1.2c-0.4,0.3-1.5,0.8-3.4,0.8c-3,0-4.8-1.7-4.8-4.6c0-2.8,2-4.8,5.2-4.8
			c1.7,0,2.3,0.4,2.5,0.7c0.2,0.3,0.2,2,0.2,2.5C62.2,28,61.3,28,61,27.7z"/>
		<path fill="#4B4648" d="M71.2,24.5c2.8,0,3.3,1.9,3.3,4.1v3.6c0,0.1,0.1,0.2,0.2,0.2h1.2c0.2,0,0.3,0.3,0.3,0.7
			c0,0.3-0.1,0.6-0.3,0.7h-4.2c-0.2,0-0.3-0.3-0.3-0.7c0-0.3,0.1-0.6,0.3-0.7h1.2c0.1,0,0.2,0,0.2-0.2v-3.5c0-1.9-0.6-2.9-2.2-2.9
			c-1.5,0-2.6,1-3,2c-0.2,0.5-0.3,0.9-0.3,1.5v2.8c0,0.1,0.1,0.2,0.2,0.2h1.2c0.2,0,0.3,0.3,0.3,0.7c0,0.3-0.1,0.6-0.3,0.7h-4.2
			c-0.2,0-0.3-0.3-0.3-0.7c0-0.3,0.2-0.6,0.3-0.7h1.2c0.1,0,0.2,0,0.2-0.2V20.6c0-0.2-0.1-0.3-0.3-0.3h-1.1c-0.2,0-0.2-0.4-0.2-0.6
			s0.1-0.5,0.2-0.6l2.5-0.1c0.3,0,0.4,0,0.4,0.4v7.1h0.1C68.1,25.6,69.2,24.5,71.2,24.5z"/>
	</g>
	<g>
		<path fill="#4B4648" d="M13.4,48.2c0-3.6,2.4-7.2,7.1-7.2c4.5,0,7.1,3.2,7.1,7.1c0,2.7-1,4.8-2.9,6c1.6,2.8,2.5,4.1,3.8,4.1
			c0.9,0,1.4-0.8,1.5-1.3c0.5-0.1,1.3,0.2,1.3,0.8c-0.2,0.7-1,2-2.9,2c-2,0-3.2-1.5-5.2-4.8c-0.8,0.3-1.7,0.5-2.7,0.5
			c-2.5,0-3.4-1.2-3.4-2.5c0-1.5,1.2-2.7,3-2.7c1.5,0,2.5,0.8,3.6,2.7c1.3-0.9,2-2.5,2-4.5c0-3.4-2.2-5.7-5.5-5.7
			C17,42.6,15,45,15,48.2c0,1.6,0.6,2.7,1.1,3.5c0,0.7-0.9,1.1-1.4,0.9C14.1,52,13.4,50.4,13.4,48.2z M20.1,51.7
			c-0.8,0-1.3,0.4-1.3,1.1c0,0.7,0.5,1.2,1.9,1.2c0.6,0,1.2-0.1,1.7-0.2C21.5,52.2,21,51.7,20.1,51.7z"/>
		<path fill="#4B4648" d="M34.3,55.4c-2.6,0-3.1-1.8-3.1-4.1v-3.4c0-0.2,0-0.3-0.3-0.3h-1c-0.1,0-0.2-0.3-0.2-0.6s0.1-0.5,0.2-0.7
			l2.5-0.2c0.3,0,0.4,0.1,0.4,0.4v4.6c0,1.8,0.5,2.9,2,2.9c1.5,0,2.4-1,2.8-1.8c0.3-0.7,0.4-1.2,0.4-1.9v-2.5c0-0.2,0-0.3-0.3-0.3
			h-1c-0.2,0-0.2-0.3-0.2-0.6s0.1-0.5,0.2-0.7l2.5-0.2c0.3,0,0.4,0,0.4,0.4v5.1c0,0.8,0,1.4,0.1,1.7c0.1,0.4,0.2,0.5,0.5,0.5h0.7
			c0.2,0,0.3,0.3,0.3,0.7c0,0.3-0.1,0.6-0.3,0.7h-2.2c-0.3,0-0.5,0-0.5-0.3s-0.2-1-0.2-1.3l0,0C37.3,54.3,36.2,55.4,34.3,55.4z"/>
		<path fill="#4B4648" d="M44.8,55.4c-1.5,0-2.6-0.8-2.6-2.5c0-2.3,2.1-3.3,4.5-3.3c0.8,0,1.3,0.1,1.4,0.2c0-0.2,0-0.5,0-0.7
			c0-1.2-0.8-1.7-1.8-1.7c-1.2,0-2.2,0.5-2.5,0.7c-0.5,0-0.8-0.8-0.5-1.2c0.4-0.3,1.6-0.8,3.2-0.8c2.3,0,3.2,1,3.2,3
			c0,1-0.1,2.3-0.1,3.6c0,1.1,0.2,1.5,0.8,1.5c0.3,0,0.6-0.2,0.7-0.2c0.4,0,0.7,0.7,0.5,1.2c-0.2,0.2-0.7,0.5-1.6,0.5
			c-1,0-1.7-0.5-1.8-1.7H48C47.7,54.4,46.7,55.4,44.8,55.4z M46.8,50.8c-1.5,0-2.9,0.6-2.9,2c0,0.8,0.5,1.2,1.4,1.2
			c1,0,1.9-0.7,2.3-1.3C48,52.2,48,51.5,48,51C48,50.9,47.6,50.8,46.8,50.8z"/>
		<path fill="#4B4648" d="M59.3,46c0.8,0,1.3,0.3,1.4,0.5c0.1,0.5-0.2,1.2-0.7,1.4c-0.1-0.1-0.4-0.3-1-0.3c-1.3,0-2.2,1.1-2.5,1.9
			c-0.3,0.8-0.4,1.5-0.4,2.4v1.9c0,0.1,0,0.2,0.2,0.2h1.9c0.2,0,0.3,0.3,0.3,0.7c0,0.3-0.1,0.6-0.3,0.7h-4.9c-0.2,0-0.3-0.3-0.3-0.7
			c0-0.3,0.1-0.6,0.3-0.7h1.2c0.1,0,0.2,0,0.2-0.2v-5.9c0-0.2-0.1-0.3-0.3-0.3h-1c-0.1,0-0.2-0.3-0.2-0.6s0.1-0.5,0.2-0.7l2.5-0.2
			c0.3,0,0.4,0,0.4,0.4V48l0.1,0C56.8,47,57.8,46,59.3,46z"/>
		<path fill="#4B4648" d="M68.6,46.2c0.2,0,0.3,0.3,0.3,0.7c0,0.3-0.1,0.6-0.3,0.7h-3.2v4.1c0,1.2,0.2,2.4,1.8,2.4
			c0.8,0,1.4-0.2,1.7-0.3c0.2,0,0.3,0.2,0.4,0.5s0.1,0.6-0.1,0.8c-0.2,0.2-1.1,0.5-2.2,0.5c-2.8,0-3.3-1.6-3.3-3.8v-4.1h-1.5
			c-0.2,0-0.3-0.3-0.3-0.7c0-0.3,0.1-0.6,0.3-0.7h1.5v-2c0.1-0.2,0.4-0.3,0.8-0.3c0.3,0,0.7,0.1,0.8,0.3v2L68.6,46.2L68.6,46.2z"/>
		<path fill="#4B4648" d="M75,54c1.4,0,2.4-0.5,2.8-0.7c0.2,0,0.4,0.2,0.6,0.5c0.1,0.3,0.1,0.7-0.1,0.8c-0.4,0.2-1.5,0.8-3.3,0.8
			c-2.8,0-4.8-1.6-4.8-4.7s2.2-4.8,4.4-4.8c2.7,0,3.8,2.1,3.8,4c0,0.2-0.1,0.2-0.5,0.3c-1.5,0.3-4.6,0.7-6.2,0.7
			C71.8,53,73.2,54,75,54z M76.2,49.3c0.3,0,0.4-0.1,0.4-0.2c0-0.8-0.8-1.8-2.1-1.8s-2.6,0.9-2.8,2.6C72.9,49.8,75.3,49.5,76.2,49.3
			z"/>
		<path fill="#4B4648" d="M86,46c0.8,0,1.3,0.3,1.4,0.5c0.1,0.5-0.2,1.2-0.7,1.4c-0.1-0.1-0.4-0.3-1-0.3c-1.3,0-2.2,1.1-2.5,1.9
			c-0.3,0.8-0.4,1.5-0.4,2.4v1.9c0,0.1,0.1,0.2,0.2,0.2h1.9c0.2,0,0.3,0.3,0.3,0.7c0,0.3-0.1,0.6-0.3,0.7H80c-0.2,0-0.3-0.3-0.3-0.7
			c0-0.3,0.1-0.6,0.3-0.7h1.2c0.1,0,0.2,0,0.2-0.2v-5.9c0-0.2-0.1-0.3-0.3-0.3h-1.1c-0.1,0-0.2-0.3-0.2-0.6s0.1-0.5,0.2-0.7l2.5-0.2
			c0.3,0,0.4,0,0.4,0.4V48l0.1,0C83.4,47,84.4,46,86,46z"/>
	</g>
	<g>
		<path fill="#4B4648" d="M17.1,72.1c0,0.1,0,0.2,0.1,0.2h4.5c0.2,0.1,0.2,0.4,0.2,0.7c0,0.3-0.1,0.6-0.2,0.7h-4.5
			c-0.1,0-0.1,0.1-0.1,0.2v4.5c0,0.1,0,0.2,0.1,0.2H19c0.2,0.1,0.3,0.3,0.3,0.7c0,0.3-0.1,0.7-0.3,0.7h-5c-0.2-0.1-0.3-0.4-0.3-0.7
			c0-0.3,0.1-0.6,0.3-0.7h1.3c0.1,0,0.1-0.1,0.1-0.2V67.7c0-0.1-0.1-0.2-0.1-0.2H14c-0.1-0.1-0.3-0.4-0.3-0.7c0-0.3,0.1-0.7,0.3-0.7
			h8.5c0.8,0,0.9,0.2,1,0.8c0,0.6,0,2.1,0,2.9c-0.3,0.3-1.2,0.3-1.5,0c0-0.7,0-1.2,0-1.8c0-0.4-0.1-0.6-0.6-0.6h-4.3
			C17.1,67.6,17.1,72.1,17.1,72.1z"/>
		<path fill="#4B4648" d="M28.2,78.8c1.4,0,2.5-0.5,2.8-0.7c0.2,0,0.5,0.2,0.5,0.5c0.1,0.3,0.1,0.7,0,0.8c-0.4,0.2-1.5,0.8-3.4,0.8
			c-2.8,0-4.9-1.6-4.9-4.7s2.1-4.8,4.5-4.8c2.7,0,3.8,2.1,3.8,4.1c0,0.2,0,0.2-0.5,0.3c-1.5,0.3-4.6,0.7-6.1,0.7
			C25,77.7,26.5,78.8,28.2,78.8z M29.4,74.1c0.3-0.1,0.4-0.1,0.4-0.2c0-0.8-0.8-1.8-2.1-1.8s-2.5,0.9-2.8,2.6
			C26.1,74.6,28.5,74.3,29.4,74.1z"/>
		<path fill="#4B4648" d="M38.3,72.4c-0.1-0.4-0.4-0.6-1.5-0.6c-1.3,0-2.2,0.4-2.2,1.2c0,0.8,0.5,1.1,2.4,1.5c1.7,0.3,3,0.8,3,2.6
			c0,2.1-1.9,3-4.1,3c-1.5,0-2.3-0.3-2.7-0.6c-0.4-0.3-0.5-0.7-0.5-1.3c0-0.6,0.1-1.2,0.2-1.5c0.2-0.2,0.4-0.2,0.7-0.2
			c0.3,0,0.7,0.2,0.8,0.3c0,0.2-0.1,0.7-0.1,1.1c0,0.4,0,0.6,0.3,0.7c0.2,0.2,0.8,0.3,1.5,0.3c1.5,0,2.3-0.7,2.3-1.6
			c0-0.8-0.6-1.2-2.4-1.5c-1.7-0.4-3-0.8-3-2.5c0-1.8,1.8-2.7,4-2.7c1.7,0,2.3,0.3,2.5,0.7c0.2,0.4,0.2,1.6,0.1,1.9
			c-0.1,0.2-0.3,0.3-0.7,0.3c-0.3,0-0.6-0.2-0.8-0.3C38.3,73.2,38.3,72.7,38.3,72.4z"/>
		<path fill="#4B4648" d="M47.8,70.9C48,71,48,71.3,48,71.6s-0.1,0.6-0.3,0.7h-3.2v4.1c0,1.2,0.2,2.4,1.8,2.4c0.8,0,1.5-0.2,1.7-0.3
			c0.2,0.1,0.3,0.2,0.5,0.5c0.1,0.3,0,0.6,0,0.8c-0.2,0.2-1.1,0.4-2.2,0.4c-2.8,0-3.3-1.6-3.3-3.8v-4.1h-1.5
			c-0.2-0.1-0.3-0.3-0.3-0.7s0.1-0.6,0.3-0.7H43v-1.9c0.1-0.2,0.4-0.3,0.8-0.3c0.3,0,0.7,0.1,0.8,0.3v1.9L47.8,70.9L47.8,70.9z"/>
		<path fill="#4B4648" d="M53.3,78.4c0,0.1,0,0.2,0.2,0.2h1.2c0.2,0.1,0.3,0.3,0.3,0.7s-0.1,0.6-0.3,0.7h-4.2
			c-0.2-0.1-0.3-0.3-0.3-0.7s0.1-0.6,0.3-0.7h1.2c0.1,0,0.2-0.1,0.2-0.2v-5.8c0-0.2,0-0.3-0.3-0.3h-1.1c-0.2-0.1-0.2-0.3-0.2-0.7
			s0.1-0.6,0.2-0.6l2.5-0.2c0.3,0,0.4,0.1,0.4,0.4L53.3,78.4L53.3,78.4z M52.3,66.1c0.7,0,1.2,0.6,1.2,1.2c0,0.7-0.5,1.2-1.2,1.2
			s-1.2-0.6-1.2-1.2C51.2,66.7,51.7,66.1,52.3,66.1z"/>
		<path fill="#4B4648" d="M63.2,72.3C63.3,72.2,63.2,72.2,63.2,72.3l-1.1-0.1c-0.2-0.1-0.3-0.3-0.3-0.7s0.1-0.6,0.3-0.7h3.4
			c0.2,0.1,0.3,0.3,0.3,0.7s-0.1,0.6-0.3,0.7h-0.5c-0.2,0-0.2,0.1-0.3,0.2l-3.5,7.2c-0.2,0.4-0.2,0.4-0.5,0.4h-0.5
			c-0.3,0-0.4-0.1-0.5-0.4l-3.2-7.2c0-0.2-0.2-0.2-0.3-0.2h-0.7c-0.2-0.1-0.3-0.3-0.3-0.7s0.1-0.6,0.3-0.7h4
			c0.2,0.1,0.3,0.3,0.3,0.7s-0.1,0.6-0.3,0.7h-1.2c-0.1,0-0.1,0.1-0.1,0.1l2.5,5.6h0.1L63.2,72.3z"/>
		<path fill="#4B4648" d="M69,80.2c-1.6,0-2.6-0.8-2.6-2.4c0-2.3,2.1-3.3,4.4-3.3c0.8,0,1.3,0.1,1.4,0.2c0-0.2,0-0.5,0-0.7
			c0-1.2-0.8-1.7-1.8-1.7c-1.2,0-2.2,0.5-2.6,0.7c-0.5-0.1-0.8-0.8-0.6-1.2c0.4-0.3,1.6-0.8,3.2-0.8c2.3,0,3.2,1,3.2,2.9
			c0,1-0.1,2.3-0.1,3.6c0,1.1,0.2,1.6,0.8,1.6c0.3,0,0.6-0.2,0.7-0.2c0.4,0.1,0.7,0.7,0.5,1.2c-0.2,0.2-0.7,0.4-1.6,0.4
			c-1,0-1.7-0.5-1.8-1.7h-0.1C71.8,79.2,70.8,80.2,69,80.2z M70.9,75.6c-1.5,0-2.9,0.6-2.9,2c0,0.8,0.4,1.2,1.4,1.2
			c1.1,0,1.9-0.7,2.3-1.3c0.4-0.6,0.5-1.3,0.5-1.8C72.1,75.7,71.7,75.6,70.9,75.6z"/>
		<path fill="#4B4648" d="M80.1,78.4c0,0.1,0.1,0.2,0.2,0.2h1.2c0.2,0.1,0.3,0.3,0.3,0.7s-0.1,0.6-0.3,0.7h-4.2
			c-0.2-0.1-0.3-0.3-0.3-0.7s0.1-0.6,0.3-0.7h1.2c0.1,0,0.2-0.1,0.2-0.2V66.8c0-0.2-0.1-0.3-0.3-0.3h-1.1c-0.1-0.1-0.2-0.3-0.2-0.7
			s0.1-0.6,0.2-0.7l2.5-0.2c0.3,0,0.4,0.1,0.4,0.4V78.4z"/>
	</g>
</g>
</svg>
