<?xml version="1.0" encoding="utf-8"?>
<!-- Generator: Adobe Illustrator 18.1.1, SVG Export Plug-In . SVG Version: 6.00 Build 0)  -->
<svg version="1.1" id="icon" xmlns="http://www.w3.org/2000/svg" xmlns:xlink="http://www.w3.org/1999/xlink" x="0px" y="0px"
	 viewBox="0 0 778.8 778.8" enable-background="new 0 0 778.8 778.8" xml:space="preserve">
<g>
	<path fill="#FFFFFF" d="M389.4,778.8c-52.6,0-103.6-10.3-151.6-30.6c-46.4-19.6-88-47.7-123.8-83.4S50.2,587.3,30.6,541
		C10.3,492.9,0,441.9,0,389.4c0-52.6,10.3-103.6,30.6-151.6c19.6-46.4,47.7-88,83.4-123.8s77.4-63.8,123.8-83.4
		c48-20.3,99-30.6,151.6-30.6S492.9,10.3,541,30.6c46.4,19.6,88,47.7,123.8,83.4s63.8,77.4,83.4,123.8c20.3,48,30.6,99,30.6,151.6
		c0,52.6-10.3,103.6-30.6,151.6c-19.6,46.4-47.7,88-83.4,123.8s-77.4,63.8-123.8,83.4C492.9,768.5,441.9,778.8,389.4,778.8z"/>
</g>
<g id="bread">
	<g>
		<path fill="#E8CC9E" d="M95,420c-2,1.4-4,2.7-5.9,4C91.1,422.7,93,421.4,95,420z"/>
		<path fill="#E8CC9E" d="M317.3,437.8c-3.7-1.8-96.1-56.2-183.6-38.3c0,0,0,0,0,0c-12.8,5.5-23.7,11.1-32.8,16.7
			C100.6,418.4,101.5,442.3,317.3,437.8z"/>
		<path fill="#E8CC9E" d="M435.5,315.6c6,1.2,191.7,36.8,242.1,9.9c12.5-6.7,10.2-15.4-1-21.7c-27.6-15.5-58.9-9-88.9-7.9
			c-16.7,0.8-33.4,1.1-50.2,1.4c-8.1,0.1-16.3,0.6-24.4,0.4c-4.7-0.1-8.8-1-13.1-0.2l-2.5,0.7c-0.2,0.1-0.4,0.1-0.6,0.2
			c0.1,0,0.2-0.1,0.4-0.2L435.5,315.6z"/>
		<path fill="#E8CC9E" d="M106.9,542.7C106.9,542.7,106.9,542.7,106.9,542.7c1.2,0.5,2.8,0.8,4.9,0.9
			C110.1,543.3,108.5,543,106.9,542.7z"/>
		<path fill="#E8CC9E" d="M258.1,362.5c37.8-7.3,66.1-3.5,216,20.4c0,0-44.2-45.6-147.1-39.8L258.1,362.5z"/>
		<polygon fill="#E8CC9E" points="331.3,342 329.9,342.3 327.8,342.9 		"/>
		<path fill="#E8CC9E" d="M160.1,389.4c-4.4,1.5-8.6,3.1-12.7,4.6C151,392.6,155.3,391.1,160.1,389.4z"/>
	</g>
	<g id="french_bread_shape_2_">
		<path fill="#C99F4B" d="M112.1,543.6c-19-2.8-35.6-12.4-47.8-27.2c-33.6-40.6-9.7-70.7,36.6-100.3c0,0-9.3,26.4,216.4,21.7
			c2.8,2.1-93-56.8-183.7-38.3c0,0,34-15.5,96-30.6c59.7-14.6,60.8-15.4,244.4,13.9c0,0-44.3-45.6-147.2-39.8l108.4-27.5
			c0,0,191,37.3,242.3,10c12.5-6.7,10.2-15.4-1-21.7c-27.6-15.5-58.9-9-88.9-7.9c-16.7,0.8-33.4,1.1-50.2,1.4
			c-8.1,0.1-16.3,0.6-24.4,0.4c-5.8-0.1-10.6-1.5-16.2,0.7c3.3-1.4,195.3-79.2,231-12.4c0,0,25.7,70.6-74.8,98.3
			c-65.6,23.2-133.5,42.5-199.5,64.4c-56.4,18.7-110.7,41-167.6,58.3c-28.9,8.8-58,17-87.3,24.3c-27.3,6.8-57.2,16.3-85.5,12.5
			C112.7,543.7,112.4,543.6,112.1,543.6z"/>
	</g>
</g>
<g id="gf_text">
	<g>
		<path fill="#3F3E3E" d="M321.2,375.9h77.1v86.7c-10.4,9-22.6,16-36.5,20.8c-13.9,4.9-29.8,7.3-47.5,7.3c-16.4,0-31.1-2.5-44-7.6
			c-12.9-5.1-23.9-12.2-32.9-21.5c-9-9.2-15.9-20.2-20.5-33c-4.7-12.8-7-26.9-7-42.3c0-15,2.5-28.9,7.5-41.7
			c5-12.8,12.1-23.9,21.3-33.5c9.2-9.5,20.1-17,32.7-22.4c12.6-5.4,26.6-8.1,42-8.1c18.2,0,34.1,3.4,47.8,10.1
			c13.7,6.7,25.1,16,34.1,28L364.7,348c-6.4-7.6-13.5-13.8-21.1-18.6c-7.7-4.8-17.2-7.2-28.4-7.2c-9.2,0-17.4,1.7-24.6,5.1
			c-7.2,3.4-13.3,8-18.3,13.8c-5,5.8-8.8,12.6-11.4,20.4c-2.6,7.8-3.9,16.1-3.9,24.9c0,9.6,1.5,18.3,4.5,26.1s7.2,14.5,12.6,20
			c5.4,5.5,11.7,9.8,19.1,12.8c7.3,3,15.2,4.5,23.8,4.5c8,0,15.3-0.9,21.9-2.8c6.6-1.9,12.5-5,17.7-9.2v-25.2h-35.4V375.9z"/>
		<path fill="#3F3E3E" d="M434.6,285.9H569v39.9h-89.1v45.3h67.8v38.7h-67.8V486h-45.3V285.9z"/>
	</g>
</g>
</svg>
