<?xml version="1.0" encoding="utf-8"?>
<!-- Generator: Adobe Illustrator 18.1.1, SVG Export Plug-In . SVG Version: 6.00 Build 0)  -->
<svg version="1.1" id="Layer_1" xmlns="http://www.w3.org/2000/svg" xmlns:xlink="http://www.w3.org/1999/xlink" x="0px" y="0px"
	 viewBox="0 0 1000 1000" enable-background="new 0 0 1000 1000" xml:space="preserve">
<path fill="#4B4648" d="M70.3,498.2c0,0-1.6-153.6-2.6-158.3c-1-4.8-30,6.8-30,6.8v145.7C43,505.6,70.3,498.2,70.3,498.2z"/>
<path fill="#4B4648" d="M347.1,398.9v-37.1c0,0-10-11.8-30.4-0.8l0.6,38.7L347.1,398.9z"/>
<polygon fill="#4B4648" points="317.9,544.8 318.7,648.5 351.5,642.7 351,540.1 "/>
<polygon fill="#4B4648" points="348.5,412.8 315.4,412.8 316.3,514.8 349,510.6 "/>
<polygon fill="#4B4648" points="395.3,413.3 362.6,413.3 363.4,509 395.7,505.4 "/>
<path fill="#4B4648" d="M394.5,367.5c0,0-10-18.9-32.7-3.2l0.5,35.7l32.3,0.6v-33.1H394.5z"/>
<polygon fill="#4B4648" points="364.6,538.5 365.6,642.1 397.8,636.9 397.3,533.8 "/>
<polygon fill="#4B4648" points="964.5,387.4 956,387.4 956.2,443.6 964.6,441.3 "/>
<polygon fill="#4B4648" points="956.7,460.1 956.8,517.1 965.3,513.9 965.2,457.5 "/>
<path fill="#4B4648" d="M964.1,379.8v-20.4c0,0-2.6-6.5-7.8-0.5l0.1,21.3L964.1,379.8z"/>
<polygon fill="#4B4648" points="968.7,456.6 968.9,513.7 977.2,510.7 977.1,454 "/>
<path fill="#4B4648" d="M976.4,362.5c0,0-2.6-10.4-8.4-1.7l0.1,19.7l8.3,0.3L976.4,362.5L976.4,362.5z"/>
<polygon fill="#4B4648" points="976.6,387.7 968.1,387.7 968.3,440.4 976.7,438.3 "/>
<path fill="#4B4648" d="M284.9,694.6c-5.1,5.8-10.4,11.8-16.2,17c-2.9,2.6-6,5-9.2,7.3c-3.4,2.4-6.6,5.2-10.2,7.3
	c-3.3,1.9-6.8,1.8-10.6,1.7c-62.1-1.6-123.1-9.2-184.4-19.6c-15.2-2.6-30.4-5.2-45.6-8.2c-4.1-0.5-6.9,8.3-8.1,11
	c-5.1,12.8,22.2,16.9,30.9,19.5c30.3,9.3,61.8,14,93.3,17c25.2,2.5,50.4,5.7,75.7,6.2c21.7,0.5,51.7,2.2,70.1-11.1
	c9-6.5,10.6-22.7,13.3-32.7c1.1-4.3,2.4-8.7,3.5-13c0.1-0.3,0.1-0.6,0.2-0.9C288.1,694.5,286,693.4,284.9,694.6z"/>
<path fill="#4B4648" d="M14.9,317.2c0,0.7,0.7,1.2,1.4,1.2l3.7-0.2c1.1-0.1,1.6-1.4,0.8-2.2l-2.6-2.6c-0.6-0.6-0.5-1.5,0.1-1.9
	c8.2-6.8,56.8-36.8,262-18.2L446,307h0.1l535.5,3.1c1.4,0,1.8-1.9,0.6-2.5l-31.7-14.7c-0.1-0.1-0.3-0.1-0.5-0.1L209,246.5
	c0,0-109.1-7.4-151.4,25.2c-0.1,0.1-0.1,0.1-0.2,0.1c-2,0.9-27.5,11.6-42.7,29c-0.2,0.2-0.3,0.6-0.3,0.9l0.2,9.2L14.9,317.2z"/>
<path fill="#4B4648" d="M670.4,377.2l39-1.4c0,0,7.1-13.4-1.6-27.6l-37.1-0.7c-2.3,0-4,2.2-3.4,4.3c1.6,5.9,3.7,16.2,0.9,22.2
	C667.6,375.6,668.7,377.3,670.4,377.2z"/>
<path fill="#4B4648" d="M614.6,480.1l44.6-6.2c0,0-1.4-74.2-2.9-87.4H613C611.9,385.6,614.3,480.4,614.6,480.1z"/>
<path fill="#4B4648" d="M669.2,474.6l44.6-5.9c0,0-1.4-70.2-2.9-82.6h-43.2C666.6,385.2,668.8,475,669.2,474.6z"/>
<path fill="#4B4648" d="M779.7,377.2l39-1.4c0,0,7.1-13.4-1.6-27.6l-37.1-0.7c-2.3,0-4,2.2-3.4,4.3c1.6,5.9,3.7,16.2,0.9,22.2
	C776.8,375.6,778.1,377.3,779.7,377.2z"/>
<path fill="#4B4648" d="M723.8,467.8l44.6-5.6c0,0-1.4-66.5-2.9-78.3h-43.2C721.1,383.1,723.5,468.1,723.8,467.8z"/>
<path fill="#4B4648" d="M725.1,377.2l39-1.4c0,0,7.1-13.4-1.6-27.6l-37.1-0.8c-2.3,0-4,2.2-3.4,4.3c1.6,5.9,3.7,16.2,0.9,22.2
	C722.1,375.6,723.4,377.3,725.1,377.2z"/>
<polygon fill="#4B4648" points="629.8,573.9 836.5,533.5 832.5,474.4 628.2,497.3 "/>
<path fill="#4B4648" d="M615.8,377.2l39-1.4c0,0,7.1-13.4-1.6-27.6l-37.1-0.7c-2.3,0-4,2.2-3.4,4.3c1.6,5.9,3.7,16.2,0.9,22.2
	C612.9,375.6,614.1,377.3,615.8,377.2z"/>
<path fill="#4B4648" d="M497.1,384.6h-48.1c-1.1-1.1,1.5,117.4,1.8,117l49.6-7.7C500.5,493.7,499,401,497.1,384.6z"/>
<path fill="#4B4648" d="M451.9,377.2l39-1.4c0,0,7.1-13.4-1.6-27.6l-37.1-0.7c-2.3,0-4,2.2-3.4,4.3c1.6,5.9,3.7,16.2,0.9,22.2
	C449.1,375.6,450.2,377.3,451.9,377.2z"/>
<path fill="#4B4648" d="M508.1,347.5c-2.3,0-4,2.2-3.4,4.3c1.6,5.9,3.7,16.2,0.9,22.2c-0.7,1.5,0.5,3.3,2.2,3.2l39-1.4
	c0,0,7.1-13.4-1.6-27.6L508.1,347.5z"/>
<path fill="#4B4648" d="M508.2,493.2l45.4-7.1c0,0-1.4-85.4-3.1-100.6h-44C505.6,384.4,507.8,493.6,508.2,493.2z"/>
<path fill="#4B4648" d="M562.3,377.2l39-1.4c0,0,7.1-13.4-1.6-27.6l-37.1-0.7c-2.3,0-4,2.2-3.4,4.3c1.6,5.9,3.7,16.2,0.9,22.2
	C559.5,375.6,560.6,377.3,562.3,377.2z"/>
<path fill="#4B4648" d="M561,486.7l44.6-6.7c0,0-1.4-80.3-2.9-94.6h-43.2C558.4,384.3,560.7,487,561,486.7z"/>
<path fill="#4B4648" d="M156.6,505L155,332.5c-31.1-7.9-72,1.6-72,1.6l1,167.2C86.1,512,156.6,505,156.6,505z"/>
<path fill="#4B4648" d="M245.5,504.6V341c-18.4-11-74.7-9.4-74.7-9.4v172C179.3,510.8,245.5,504.6,245.5,504.6z"/>
<circle fill="#4B4648" cx="121.1" cy="599.2" r="20.5"/>
<path fill="#4B4648" d="M998.6,327.8l-2-1.4c-0.6-0.3-1.2-0.6-1.8-0.6l-549.4-3.2c-0.1,0-0.1,0-0.2,0L278.9,309
	C69.2,289.9,28.6,323.4,28.3,323.7c0.1-0.1,0.2-0.2,0.2-0.2c-2-2-5.7-0.7-5.7,2.3l-3.1,298.6c0,0.5-0.1,0.8-0.2,1.2
	c-1.7,4-11.5,27.9-13.3,43.9c-0.9,7.8,0.1,13.8,5,14.4c0,0,181.2,36.6,234.2,26.3c0.2,0,0.5-0.1,0.7-0.2
	c2.8-1.2,22.7-10.3,35.1-27.1c6.9-9.2,11.6-20.8,9.8-34.7c0-0.1,0-0.2,0-0.3L287.7,330c0-1.6,1.1-3.1,2.7-3.3
	c12.5-2.2,65.4-9.4,124.2,7.1c1.4,0.5,2.4,1.7,2.4,3.2l4.2,322.1c0,0.3,0.1,0.7,0.1,1c1,3.1,6.8,18.8,17.2,17.7
	c0.9-0.1,1.7-0.6,2.3-1.2l4.2-5.2l-11.2-335.8l506.5-1.6l0.2,209.1v0.5c0.5-0.7,1.1-1.1,1.8-1.4l6.8-1.9V341c0,0,18.2-13.5,32.4,1
	l2.6,188.6l7.3-2c1.5-0.5,2.4-1.7,2.4-3.2l-0.2-188c0-1.6,1.1-2.9,2.7-3.3c0.5-0.1,0.9-0.2,1.4-0.3
	C1000.3,332.9,1000.9,329.4,998.6,327.8z M28.8,340.4c0,0,57.6-37.9,228-10.2l2,207.4l-0.2-17.4c-119.4,25.5-226.5-2.6-230.9-3.7
	L28.8,340.4z M27.2,626.9l0.6-98.7c62.2,34.6,231.1,9.4,231.1,9.4l1.1,116.9C259.9,654.5,46.2,641.1,27.2,626.9z"/>
<path fill="#4B4648" d="M888.9,377.2l39-1.4c0,0,7.1-13.4-1.6-27.6l-37.1-0.7c-2.3,0-4,2.2-3.4,4.3c1.6,5.9,3.7,16.2,0.9,22.2
	C886.1,375.6,887.3,377.3,888.9,377.2z"/>
<path fill="#4B4648" d="M834.4,377.2l39-1.4c0,0,7.1-13.4-1.6-27.6l-37.1-0.7c-2.3,0-4,2.2-3.4,4.3c1.6,5.9,3.7,16.2,0.9,22.2
	C831.4,375.6,832.7,377.3,834.4,377.2z"/>
<path fill="#4B4648" d="M833.1,457.9l44.6-4.9c0,0-1.4-58-2.9-68.3h-43.2C830.5,383.9,832.8,458.1,833.1,457.9z"/>
<path fill="#4B4648" d="M886.1,383.9c-1-0.7,1.4,69,1.7,68.8l43.9-4.5c0,0-1.4-54.5-2.9-64.2C928.7,383.9,886.1,383.9,886.1,383.9z"
	/>
<path fill="#4B4648" d="M778.4,462.8l44.6-5.3c0,0-1.4-63-2.9-74.1h-43.2C775.8,382.6,778.1,463.2,778.4,462.8z"/>
<path fill="#4B4648" d="M472.3,654.4l22.1-23.8l430.5-83l11.2,11.8c0,0-10.9,24.5-36.8,2.6l-21.6,6.6c0,0-5.2,36.5-39.4,12.5
	l-19.4,4.3c0,0-9.2,34-42.1,9.2l-25.3,5.9c0,0-10.1,46.9-52.9,12l-24.8,5.4c0,0-17,60.8-57.7,14.1l-20.5,5.9
	c0,0-14.9,50.1-54.1,12.7l-17,4C524.3,654.7,491.4,709,472.3,654.4z"/>
</svg>
