<?xml version="1.0" encoding="utf-8"?>
<!-- Generator: Adobe Illustrator 18.1.1, SVG Export Plug-In . SVG Version: 6.00 Build 0)  -->
<svg version="1.1" id="Layer_1" xmlns="http://www.w3.org/2000/svg" xmlns:xlink="http://www.w3.org/1999/xlink" x="0px" y="0px"
	 viewBox="0 0 100 100" enable-background="new 0 0 100 100" xml:space="preserve">
<g>
	<path fill="none" stroke="#030404" stroke-width="19" stroke-miterlimit="10" d="M38.8,86.9"/>
	<path fill="#4B4648" d="M50,4.2c0.9,0.3,2.8,0.9,3.5,0c0.1-0.1,0.1-0.2,0-0.3l-1.4-3.6C52,0,51.4-0.1,51.3,0.2l-1.6,3.5
		C49.7,3.9,49.8,4.1,50,4.2z"/>
	<g>
		<path fill="#4B4648" d="M40.5,15.9c2-3.6,4.1-6.8,5.6-8.9l-1.9-0.2C42.4,7,16,9.4,6,24.3c-0.1,0.1-0.1,0.2-0.1,0.3v0.1v3.9
			c0,0.1,0.1,0.1,0.1,0.1h1.1c0.1,0,0.1-0.1,0.1-0.1v-3.1c0.5,0,1.1,0,1.7,0v7.6c0,0.1,0.1,0.1,0.1,0.1h1.1c0.1,0,0.1-0.1,0.1-0.1
			v-7.6c0.6,0,1.3,0.1,2,0.1v6c0,0.1,0.1,0.1,0.1,0.1h1.1c0.1,0,0.1-0.1,0.1-0.1v-5.9c0.4,0,0.9,0.1,1.3,0.1v8
			c0,0.1,0.1,0.1,0.1,0.1H16c0.1,0,0.1-0.1,0.1-0.1V26c0.1,0,0.3,0,0.4,0.1c0.4,0.1,0.9,0.1,1.3,0.2v6.6c0,0.1,0.1,0.1,0.1,0.1H19
			c0.1,0,0.1-0.1,0.1-0.1v-6.4c0.5,0.1,1,0.2,1.4,0.3v7.6c0,0.1,0.1,0.1,0.1,0.1h1.1c0.1,0,0.1-0.1,0.1-0.1v-7.3
			c0.6,0.2,1.2,0.3,1.7,0.5v5.9c0,0.1,0.1,0.1,0.1,0.1h1.1c0.1,0,0.1-0.1,0.1-0.1V28c0.5,0.2,1,0.3,1.4,0.5v6.6
			c0,0.1,0.1,0.1,0.1,0.1h1.1c0.1,0,0.1-0.1,0.1-0.1v-6c0.6,0.2,1.2,0.5,1.7,0.8v4.3c0,0.1,0.1,0.1,0.1,0.1h1.1
			c0.1,0,0.1-0.1,0.1-0.1v-3.6c0.6,0.3,1.1,0.6,1.7,1v4.3c0,0.1,0.1,0.1,0.1,0.1h1.1c0.1,0,0.1-0.1,0.1-0.1v-4.3
			C35.1,27.6,37,22.3,40.5,15.9z"/>
	</g>
	<g>
		<path fill="#4B4648" d="M64.4,34.1c0-0.1,0-0.1,0-0.2C64.2,17.5,54,8.9,52,7.5l-2.3-0.2c-4.1,5.6-11.9,18-12,25.9c0,0,0,0,0,0.1
			v6.1c0,0.1,0.1,0.1,0.1,0.1H39c0.1,0,0.1-0.1,0.1-0.1v-5.6c0.6-0.1,1.2-0.2,1.9-0.4v4.5c0,0.1,0.1,0.1,0.1,0.1h1.1
			c0.1,0,0.1-0.1,0.1-0.1v-4.8c0.5-0.1,1-0.1,1.5-0.2v6c0,0.1,0.1,0.1,0.1,0.1H45c0.1,0,0.1-0.1,0.1-0.1v-6.2
			c0.6-0.1,1.2-0.1,1.8-0.2v4.9c0,0.1,0.1,0.1,0.1,0.1h1.1c0.1,0,0.1-0.1,0.1-0.1v-5c0.5,0,1,0,1.5-0.1v6.1c0,0.1,0.1,0.1,0.1,0.1
			h1.1c0.1,0,0.1-0.1,0.1-0.1v-6.1c0.6,0,1.2,0,1.8,0.1V37c0,0.1,0.1,0.1,0.1,0.1H54c0.1,0,0.1-0.1,0.1-0.1v-4.5
			c0.5,0,1,0.1,1.5,0.1V38c0,0.1,0.1,0.1,0.1,0.1h1.1c0.1,0,0.1-0.1,0.1-0.1v-5.2c0.8,0.1,1.5,0.3,2.3,0.4v3.3
			c0,0.1,0.1,0.1,0.1,0.1H61c0.1,0,0.1-0.1,0.1-0.1v-2.9c0.7,0.2,1.3,0.4,1.9,0.6l-0.1,4c0,0.1,0.1,0.2,0.1,0.2h1.1
			c0.1,0,0.1-0.1,0.1-0.1L64.4,34.1z"/>
	</g>
	<g>
		<path fill="#4B4648" d="M94.2,31.3c0-0.1,0-0.2,0-0.3l0,0l0,0c0,0,0-0.1-0.1-0.2c-0.8-2-1.9-4.4-4.1-7c-5-5.7-14.5-13-31.3-15.8
			l-1.4-0.1c3.9,4,9.6,11.9,10.3,24c0,0,0,0,0,0.1v8.1c0,0.1,0.1,0.1,0.1,0.1h1.1c0.1,0,0.1-0.1,0.1-0.1v-6c0.6-0.3,1.2-0.5,1.9-0.8
			V38c0,0.1,0.1,0.1,0.1,0.1H72c0.1,0,0.1-0.1,0.1-0.1v-5.2c0.5-0.2,1-0.3,1.6-0.5v6c0,0.1,0.1,0.1,0.1,0.1h1.1
			c0.1,0,0.1-0.1,0.1-0.1v-6.4c0.6-0.1,1.2-0.3,1.9-0.4v4.7c0,0.1,0.1,0.1,0.1,0.1h1.1c0.1,0,0.1-0.1,0.1-0.1v-5
			c0.5-0.1,1-0.2,1.6-0.2v5.5c0,0.1,0.1,0.1,0.1,0.1H81c0.1,0,0.1-0.1,0.1-0.1v-5.7c0.5,0,1-0.1,1.6-0.1v6.1c0,0.1,0.1,0.1,0.1,0.1
			h1.1c0.1,0,0.1-0.1,0.1-0.1v-6.1c0.6,0,1.2,0,1.9,0.1v3.9c0,0.1,0.1,0.1,0.1,0.1h1.1c0.1,0,0.1-0.1,0.1-0.1v-3.8
			c0.5,0.1,1.1,0.1,1.6,0.2V37c0,0.1,0.1,0.1,0.1,0.1H90c0.1,0,0.1-0.1,0.1-0.1v-5.6c0.7,0.1,1.4,0.3,2,0.5v1.8
			c0,0.1,0.1,0.1,0.1,0.1h1.1c0.1,0,0.1-0.1,0.1-0.1L94.2,31.3z"/>
	</g>
	<path fill="none" stroke="#030404" stroke-width="19" stroke-miterlimit="10" d="M49.9,41.2"/>
	<g>
		<path fill="#4B4648" d="M38.7,100c-1.2-0.2-2.5-1-3.7-2.5c-0.3-0.4-0.3-1,0.1-1.4c0.4-0.3,1.1-0.3,1.4,0.2c1.2,1.4,2.2,2,3,1.8
			c1.4-0.5,5-4.3,7.4-28.8c1.3-13.7,1.6-27.2,1.6-27.3c0-0.5,0.5-1,1-1s1,0.5,1,1c0,0.1-0.3,13.7-1.6,27.5
			c-0.8,8.1-1.8,14.7-2.9,19.6c-1.6,6.6-3.4,10-5.8,10.8C39.7,100,39.2,100,38.7,100z"/>
	</g>
</g>
</svg>
