<?xml version="1.0" encoding="utf-8"?>
<!-- Generator: Adobe Illustrator 18.1.1, SVG Export Plug-In . SVG Version: 6.00 Build 0)  -->
<svg version="1.1" id="Layer_1" xmlns="http://www.w3.org/2000/svg" xmlns:xlink="http://www.w3.org/1999/xlink" x="0px" y="0px"
	 viewBox="0 0 808.2 808.5" enable-background="new 0 0 808.2 808.5" xml:space="preserve">
<g>
	<path fill="#FFFFFF" d="M404,808.5c-54.6,0-107.5-10.7-157.4-31.8c-48.1-20.4-91.4-49.5-128.5-86.6C81,653,51.9,609.7,31.5,561.6
		C10.5,511.7-0.2,458.8-0.2,404.2c0-54.6,10.7-107.5,31.8-157.4c20.4-48.1,49.5-91.4,86.6-128.5s80.3-66.3,128.5-86.6
		C296.5,10.7,349.4,0,404,0s107.5,10.7,157.4,31.8c48.1,20.4,91.4,49.5,128.5,86.6c37.1,37.1,66.3,80.3,86.6,128.5
		c21.1,49.9,31.8,102.8,31.8,157.4c0,54.6-10.7,107.5-31.8,157.4c-20.4,48.1-49.5,91.4-86.6,128.5c-37.1,37.1-80.3,66.3-128.5,86.6
		C511.5,797.8,458.6,808.5,404,808.5z"/>
</g>
<g id="green_onions_bundle">
	<g>
		<path fill="#E1EBC4" d="M410.3,606.6l16.9,138c0,0-28.4,48.4-43.2-1.5c0,0,12.7-68.4,10.2-78.6l-3.4-57.3L410.3,606.6z"/>
		<path fill="#478235" d="M389.9,610.1c0,0,18.1,36.6,21.2-1.9l-9.7-85.9c13.9-31.4-145-398.9-145-398.9l-15.1,7.5L335.9,365
			c-12-39-114.5-193.4-114.5-193.4l-11.8,5.8l110.3,181.6c29.3,47.6,62.8,163.4,62.8,163.4L389.9,610.1z"/>
	</g>
	<g>
		<path fill="#E1EBC4" d="M482.1,594.2l-35.3,134.5c0,0-44.2,34.4-39.6-17.4c0,0,37.1-58.8,38.5-69.2l18-54.5L482.1,594.2z"/>
		<path fill="#478235" d="M461.9,589.8c0,0,3.3,40.7,20.4,6l22.7-83.4c24.5-24,12.8-424.3,12.8-424.3L501,89.5l1.3,252.7
			c3.3-40.7-34.8-222-34.8-222l-13.1,1.1l35.3,209.5c9.6,55.1-2,175-2,175L461.9,589.8z"/>
	</g>
	<g>
		<path fill="#E1EBC4" d="M451.5,603.4l-33.4,135c0,0-43.8,35-39.9-16.8c0,0,36.3-59.4,37.5-69.8L433,597L451.5,603.4z"/>
		<path fill="#478235" d="M431.2,599.3c0,0,3.9,40.7,20.5,5.8l21.6-83.8c24.2-24.4,6.9-424.4,6.9-424.4l-16.8,1.6l4.8,252.6
			c2.8-40.7-37.9-221.5-37.9-221.5l-13.1,1.2l38.2,209c10.4,54.9,0.4,175.1,0.4,175.1L431.2,599.3z"/>
	</g>
	<g>
		<path fill="#E1EBC4" d="M445.4,593.8l16.9,138c0,0-28.4,48.4-43.2-1.5c0,0,12.7-68.4,10.2-78.6l-3.4-57.3L445.4,593.8z"/>
		<path fill="#478235" d="M425,597.2c0,0,18.1,36.6,21.2-1.9l-9.7-85.9c13.9-31.4-145-398.9-145-398.9l-15.1,7.5L371,352.2
			c-12-39-114.5-193.4-114.5-193.4l-11.8,5.8l110.3,181.6c29.3,47.6,62.8,163.4,62.8,163.4L425,597.2z"/>
	</g>
	<g>
		<path fill="#E1EBC4" d="M377.5,580.7c0,0,3.1,107.6-33.3,162.4c0,0-3.1,44.5,36.3,16.9c0,0,14.6-18.6,8.7-72.2
			c0,0,19.1-75.4,4.7-110.9C395.5,583.8,394.6,616.7,377.5,580.7z"/>
		<path fill="#478235" d="M376.2,581l-20.5-88.6c0,0-62-139.3-102.2-141.7c0,0,34.7,0,50.5,20.4c0.3,0.3,0.5,0.7,0.8,1
			c0,0-137.1-214.8-162.1-228.5c-1.1-0.6-1.3-2-0.4-2.9l11.8-10.8c0,0,142.5,176.4,168.2,240.3c0,0,64.3,142,71,189.9
			C393.4,560.2,404.9,628.7,376.2,581z"/>
	</g>
	<g>
		<path fill="#E1EBC4" d="M481.5,590.7c0,0-68.1,83.4-131.5,101c0,0-31.5,31.6,16.4,36.6c0,0,23.2-4.5,53.9-48.9
			c0,0,63.8-44.5,76.2-80.8C493.1,604.9,470.9,629.1,481.5,590.7z"/>
		<path fill="#478235" d="M480.3,590.1l42.5-80.3c0,0,44.3-145.9,15.5-174c0,0,26.2,22.7,24.9,48.5c0,0.4-0.1,0.9-0.1,1.3
			c0,0,37.1-252.1,27.1-278.9c-0.4-1.1,0.4-2.4,1.6-2.4l16-0.5c0,0-7.8,226.6-30.2,291.8c0,0-44.4,149.4-70.7,190
			C507,585.6,470.8,645,480.3,590.1z"/>
	</g>
	<g>
		<path fill="#E1EBC4" d="M478.6,588.2c0,0-53.2,93.6-112.8,121.5c0,0-25.8,36.5,22.3,33.3c0,0,22.2-8.3,44.9-57.2
			c0,0,55.5-54.6,61.6-92.4C492.4,600.2,474.5,627.8,478.6,588.2z"/>
		<path fill="#478235" d="M477.3,587.9l28.5-86.3c0,0,19.3-151.2-13.8-174.1c0,0,29.6,18,32.6,43.6c0,0.4,0.1,0.9,0.1,1.3
			c0,0-5.6-254.8-19.9-279.5c-0.6-1.1,0-2.4,1.2-2.6l15.7-3.2c0,0,30.2,224.7,19,292.7c0,0-18.8,154.7-38,199.1
			C502.8,578.9,477.1,643.5,477.3,587.9z"/>
	</g>
</g>
</svg>
